/vscmnt/brussel_pixiu_data/_data_brussel/112/vsc11236/PredSimResults/SUBJ10mtu3D/weighted-LRposFixed/trackIG/worker_02.mot
version=1
nRows=6
nColumns=50
inDegrees=yes
endheader
                time	         pelvis_tilt	         pelvis_list	     pelvis_rotation	           pelvis_tx	           pelvis_ty	           pelvis_tz	       hip_flexion_r	     hip_adduction_r	      hip_rotation_r	        knee_angle_r	       ankle_angle_r	         mtp_angle_r	       hip_flexion_l	     hip_adduction_l	      hip_rotation_l	        knee_angle_l	       ankle_angle_l	         mtp_angle_l	    lumbar_extension	      lumbar_bending	     lumbar_rotation	 ercspn_r/activation	 intobl_r/activation	 extobl_r/activation	    abd_r/activation	    add_r/activation	hamstrings_r/activation	bifemsh_r/activation	glut_max_r/activation	iliopsoas_r/activation	rect_fem_r/activation	  vasti_r/activation	gastroc_r/activation	 soleus_r/activation	tib_ant_r/activation	 ercspn_l/activation	 intobl_l/activation	 extobl_l/activation	    abd_l/activation	    add_l/activation	hamstrings_l/activation	bifemsh_l/activation	glut_max_l/activation	iliopsoas_l/activation	rect_fem_l/activation	  vasti_l/activation	gastroc_l/activation	 soleus_l/activation	tib_ant_l/activation	
          0.00000000	         -4.20173942	         -2.96571070	         10.02701779	          0.00000000	          0.82903362	         -0.01396908	         27.94616184	         -0.75586076	         -7.80242644	         -3.45426004	          6.87404141	          0.25180029	        -13.40617566	         -3.29138128	          5.90309097	         -7.88095344	          9.69653641	         24.74288681	         -7.61468419	          1.16629483	         -3.68371417	          0.09003337	          0.16339232	          0.02068637	          0.01190094	          0.10788533	          0.03540782	          0.13796031	          0.00999999	          0.06948485	          0.01235936	          0.00999999	          0.01347307	          0.01004332	          0.26032391	          0.02931839	          0.00999999	          0.00999999	          0.04032561	          0.02468677	          0.02383809	          0.13025186	          0.03381197	          0.30819215	          0.00999999	          0.00999999	          0.24397232	          0.23636711	          0.01685560	
          0.01140569	         -4.27091833	         -2.77279143	          9.83008470	          0.01516062	          0.82738940	         -0.01356547	         28.00638570	         -0.52437429	         -6.68875113	         -5.00699076	          6.59311134	          0.25295263	        -13.50219790	         -3.07085697	          5.20775367	         -9.62259484	          9.15974262	         26.37235589	         -7.40819601	          1.51769101	         -3.86430452	          0.07565227	          0.13729354	          0.01738212	          0.00999999	          0.18743794	          0.02975210	          0.11724069	          0.06064640	          0.05838598	          0.01038519	          0.00999999	          0.01938589	          0.01416324	          0.26282188	          0.07927906	          0.00999999	          0.00999999	          0.03388437	          0.07363800	          0.02003041	          0.10944662	          0.02841115	          0.32616909	          0.00999999	          0.00999999	          0.20500243	          0.22228997	          0.01416324	
          0.02281137	         -4.32434170	         -2.59102455	          9.57614130	          0.03065115	          0.82585142	         -0.01313401	         27.88124467	         -0.32783776	         -5.54185466	         -6.53437151	          6.30766151	          0.24122584	        -13.45951633	         -2.84841626	          4.45772628	        -11.68193713	          8.53320144	         27.94523002	         -7.17824939	          1.89968089	         -4.02250666	          0.06515381	          0.11942445	          0.01460566	          0.04956095	          0.15749833	          0.04323960	          0.09851375	          0.06271499	          0.04905994	          0.00999999	          0.00999999	          0.01628937	          0.01190094	          0.29595820	          0.09212097	          0.00999999	          0.00999999	          0.02847199	          0.06567279	          0.01683094	          0.09196463	          0.02387302	          0.31257921	          0.00999999	          0.00999999	          0.17225723	          0.20585223	          0.01190094	
          0.03421706	         -4.36444843	         -2.41663100	          9.26388495	          0.04626420	          0.82457754	         -0.01260465	         27.60729082	         -0.11989437	         -4.47622328	         -7.81172892	          5.92324265	          0.23230037	        -13.20800916	         -2.62710678	          3.65773822	        -14.13699632	          7.77127657	         29.39700092	         -6.94811081	          2.29550177	         -4.15709830	          0.07925719	          0.10034869	          0.01227268	          0.09836896	          0.16111497	          0.04452995	          0.08277807	          0.07573610	          0.04122356	          0.00999999	          0.00999999	          0.01368745	          0.00999999	          0.31631642	          0.11377462	          0.00999999	          0.00999999	          0.02392414	          0.06870966	          0.01779095	          0.07727505	          0.02005976	          0.30074139	          0.00999999	          0.00999999	          0.14474245	          0.17432534	          0.00999999	
          0.04562275	         -4.39188144	         -2.25010782	          8.89834437	          0.06180228	          0.82371118	         -0.01198312	         27.27484551	          0.10975480	         -3.51958308	         -8.99174662	          5.53869658	          0.22145686	        -12.69890622	         -2.41276046	          2.79956776	        -17.03225634	          6.86898606	         30.55609332	         -6.73601309	          2.70527783	         -4.26628157	          0.07552546	          0.08431991	          0.01031236	          0.12160752	          0.16712817	          0.04329816	          0.06955586	          0.08290192	          0.03463888	          0.00999999	          0.03091688	          0.01150115	          0.00999999	          0.33849279	          0.13630754	          0.00999999	          0.00999999	          0.02010272	          0.08296782	          0.02057078	          0.06493184	          0.01685560	          0.27736549	          0.00999999	          0.00999999	          0.12162262	          0.14648022	          0.00999999	
          0.05702843	         -4.40720870	         -2.09167355	          8.48228790	          0.07714895	          0.82334441	         -0.01128331	         26.90885015	          0.35402274	         -2.67136428	        -10.11784215	          5.23447970	          0.21031207	        -11.91081560	         -2.21659638	          1.86445043	        -20.36960364	          5.83037011	         31.20604826	         -6.55088900	          3.12695529	         -4.34958300	          0.06409430	          0.07085143	          0.00999999	          0.13275687	          0.14791535	          0.04632878	          0.05844565	          0.06965993	          0.02910599	          0.00999999	          0.08259882	          0.00999999	          0.00999999	          0.34865803	          0.14812172	          0.00999999	          0.00999999	          0.01689169	          0.09355106	          0.02027128	          0.05456023	          0.01416324	          0.24179671	          0.00999999	          0.00999999	          0.10219575	          0.12308282	          0.00999999	
